<?xml version="1.0" encoding="utf-8"?>
<!-- Generator: Adobe Illustrator 23.0.5, SVG Export Plug-In . SVG Version: 6.00 Build 0)  -->
<svg version="1.1" id="Layer_1" xmlns="http://www.w3.org/2000/svg" xmlns:xlink="http://www.w3.org/1999/xlink" x="0px" y="0px"
	 viewBox="0 0 800 800" style="enable-background:new 0 0 800 800;" xml:space="preserve">
<style type="text/css">
	.st0{fill:#F26F23;}
	.st1{fill:#111D2D;}
	.st2{clip-path:url(#SVGID_2_);}
	.st3{fill:#F69132;}
	.st4{fill:#EF5224;}
	.st5{fill:#FFFFFF;}
	.st6{fill:#F4F3F1;}
	.st7{fill:#AA1A1F;}
	.st8{fill-rule:evenodd;clip-rule:evenodd;fill:#8FD4DD;}
	.st9{fill:#69B8C6;}
	.st10{opacity:0.2;}
	.st11{fill:#231F20;}
	.st12{fill:#BAC4C8;}
	.st13{fill:#F16B63;}
</style>
<g>
	
		<ellipse transform="matrix(0.7071 -0.7071 0.7071 0.7071 -167.0493 399.7622)" class="st0" cx="399.03" cy="401.53" rx="235.41" ry="235.41"/>
	<path class="st1" d="M399.03,140.74c-143.8,0-260.79,116.99-260.79,260.79c0,143.8,116.99,260.79,260.79,260.79
		c143.8,0,260.79-116.99,260.79-260.79C659.82,257.73,542.83,140.74,399.03,140.74z M399.03,657.17
		c-140.96,0-255.65-114.68-255.65-255.65c0-140.96,114.68-255.65,255.65-255.65c140.96,0,255.65,114.68,255.65,255.65
		C654.68,542.49,539.99,657.17,399.03,657.17z"/>
	<g>
		<defs>
			
				<ellipse id="SVGID_1_" transform="matrix(0.7071 -0.7071 0.7071 0.7071 -167.0492 399.7624)" cx="399.03" cy="401.53" rx="231.14" ry="231.14"/>
		</defs>
		<clipPath id="SVGID_2_">
			<use xlink:href="#SVGID_1_"  style="overflow:visible;"/>
		</clipPath>
		<g class="st2">
			
				<rect x="-99.61" y="248.44" transform="matrix(0.7071 -0.7071 0.7071 0.7071 -106.2785 247.9524)" class="st3" width="691.55" height="7.64"/>
			
				<rect x="-79.85" y="277.2" transform="matrix(0.7071 -0.7071 0.7071 0.7071 -120.8247 270.3474)" class="st3" width="691.55" height="7.64"/>
			
				<rect x="-60.09" y="305.96" transform="matrix(0.7071 -0.7071 0.7071 0.7071 -135.3703 292.7393)" class="st3" width="691.55" height="7.64"/>
			
				<rect x="-40.33" y="334.71" transform="matrix(0.7071 -0.7071 0.7071 0.7071 -149.9156 315.1343)" class="st3" width="691.55" height="7.64"/>
			
				<rect x="-20.57" y="363.47" transform="matrix(0.7071 -0.7071 0.7071 0.7071 -164.4619 337.5294)" class="st3" width="691.55" height="7.64"/>
			
				<rect x="-0.82" y="392.22" transform="matrix(0.7071 -0.7071 0.7071 0.7071 -179.0073 359.9215)" class="st3" width="691.55" height="7.64"/>
			
				<rect x="18.94" y="420.98" transform="matrix(0.7071 -0.7071 0.7071 0.7071 -193.5527 382.3165)" class="st3" width="691.55" height="7.64"/>
			
				<rect x="38.7" y="449.73" transform="matrix(0.7071 -0.7071 0.7071 0.7071 -208.0988 404.7106)" class="st3" width="691.55" height="7.64"/>
			
				<rect x="58.46" y="478.49" transform="matrix(0.7071 -0.7071 0.7071 0.7071 -222.6448 427.107)" class="st3" width="691.55" height="7.64"/>
			
				<rect x="78.22" y="507.24" transform="matrix(0.7071 -0.7071 0.7071 0.7071 -237.1899 449.5001)" class="st3" width="691.55" height="7.64"/>
			
				<rect x="97.98" y="536" transform="matrix(0.7071 -0.7071 0.7071 0.7071 -251.7359 471.8931)" class="st3" width="691.55" height="7.64"/>
			
				<rect x="117.74" y="564.75" transform="matrix(0.7071 -0.7071 0.7071 0.7071 -266.281 494.2873)" class="st3" width="691.55" height="7.64"/>
			
				<rect x="137.5" y="593.51" transform="matrix(0.7071 -0.7071 0.7071 0.7071 -280.8266 516.6816)" class="st3" width="691.55" height="7.64"/>
		</g>
		<g class="st2">
			
				<rect x="-94.75" y="262.95" transform="matrix(0.7071 -0.7071 0.7071 0.7071 -115.1137 255.6393)" class="st4" width="691.55" height="7.64"/>
			
				<rect x="-74.99" y="291.71" transform="matrix(0.7071 -0.7071 0.7071 0.7071 -129.6595 278.0339)" class="st4" width="691.55" height="7.64"/>
			
				<rect x="-55.23" y="320.46" transform="matrix(0.7071 -0.7071 0.7071 0.7071 -144.2053 300.4277)" class="st4" width="691.55" height="7.64"/>
			
				<rect x="-35.47" y="349.22" transform="matrix(0.7071 -0.7071 0.7071 0.7071 -158.7511 322.8206)" class="st4" width="691.55" height="7.64"/>
			
				<rect x="-15.71" y="377.97" transform="matrix(0.7071 -0.7071 0.7071 0.7071 -173.2963 345.2158)" class="st4" width="691.55" height="7.64"/>
			
				<rect x="4.05" y="406.73" transform="matrix(0.7071 -0.7071 0.7071 0.7071 -187.8417 367.6091)" class="st4" width="691.55" height="7.64"/>
			
				<rect x="23.81" y="435.48" transform="matrix(0.7071 -0.7071 0.7071 0.7071 -202.3878 390.0043)" class="st4" width="691.55" height="7.64"/>
			
				<rect x="43.57" y="464.24" transform="matrix(0.7071 -0.7071 0.7071 0.7071 -216.9333 412.3977)" class="st4" width="691.55" height="7.64"/>
			
				<rect x="63.33" y="492.99" transform="matrix(0.7071 -0.7071 0.7071 0.7071 -231.4786 434.7904)" class="st4" width="691.55" height="7.64"/>
			
				<rect x="83.08" y="521.75" transform="matrix(0.7071 -0.7071 0.7071 0.7071 -246.0243 457.1858)" class="st4" width="691.55" height="7.64"/>
			
				<rect x="102.84" y="550.51" transform="matrix(0.7071 -0.7071 0.7071 0.7071 -260.5706 479.5797)" class="st4" width="691.55" height="7.64"/>
			
				<rect x="122.6" y="579.26" transform="matrix(0.7071 -0.7071 0.7071 0.7071 -275.116 501.9724)" class="st4" width="691.55" height="7.64"/>
			
				<rect x="142.36" y="608.02" transform="matrix(0.7071 -0.7071 0.7071 0.7071 -289.6617 524.3687)" class="st4" width="691.55" height="7.64"/>
		</g>
		<g class="st2">
			
				<rect x="-97.73" y="256.24" transform="matrix(0.7071 -0.7071 0.7071 0.7071 -111.2404 251.5639)" class="st1" width="691.55" height="7.64"/>
			
				<rect x="-77.97" y="284.99" transform="matrix(0.7071 -0.7071 0.7071 0.7071 -125.7857 273.9566)" class="st1" width="691.55" height="7.64"/>
			
				<rect x="-58.21" y="313.75" transform="matrix(0.7071 -0.7071 0.7071 0.7071 -140.3311 296.351)" class="st1" width="691.55" height="7.64"/>
			
				<rect x="-38.46" y="342.5" transform="matrix(0.7071 -0.7071 0.7071 0.7071 -154.8777 318.7451)" class="st1" width="691.55" height="7.64"/>
			
				<rect x="-18.7" y="371.26" transform="matrix(0.7071 -0.7071 0.7071 0.7071 -169.423 341.1396)" class="st1" width="691.55" height="7.64"/>
			
				<rect x="1.06" y="400.02" transform="matrix(0.7071 -0.7071 0.7071 0.7071 -183.9689 363.5334)" class="st1" width="691.55" height="7.64"/>
			
				<rect x="20.82" y="428.77" transform="matrix(0.7071 -0.7071 0.7071 0.7071 -198.5146 385.9283)" class="st1" width="691.55" height="7.64"/>
			
				<rect x="40.58" y="457.53" transform="matrix(0.7071 -0.7071 0.7071 0.7071 -213.0607 408.3228)" class="st1" width="691.55" height="7.64"/>
			
				<rect x="60.34" y="486.28" transform="matrix(0.7071 -0.7071 0.7071 0.7071 -227.6056 430.7149)" class="st1" width="691.55" height="7.64"/>
			
				<rect x="80.1" y="515.04" transform="matrix(0.7071 -0.7071 0.7071 0.7071 -242.1516 453.1108)" class="st1" width="691.55" height="7.64"/>
			
				<rect x="99.86" y="543.79" transform="matrix(0.7071 -0.7071 0.7071 0.7071 -256.6976 475.5054)" class="st1" width="691.55" height="7.64"/>
			
				<rect x="119.62" y="572.55" transform="matrix(0.7071 -0.7071 0.7071 0.7071 -271.2428 497.899)" class="st1" width="691.55" height="7.64"/>
			
				<rect x="139.38" y="601.3" transform="matrix(0.7071 -0.7071 0.7071 0.7071 -285.7886 520.2932)" class="st1" width="691.55" height="7.64"/>
		</g>
	</g>
	<path class="st1" d="M399.03,151.11c-138.08,0-250.42,112.34-250.42,250.42c0,138.08,112.34,250.42,250.42,250.42
		c138.08,0,250.42-112.34,250.42-250.42C649.45,263.45,537.11,151.11,399.03,151.11z M399.03,632.67
		c-127.45,0-231.14-103.69-231.14-231.14c0-127.45,103.69-231.14,231.14-231.14c127.45,0,231.14,103.69,231.14,231.14
		C630.17,528.98,526.48,632.67,399.03,632.67z"/>
	<path class="st5" d="M612.46,215.83c-1.29-1.3-3.01-2.2-4.99-2.6c-7.9-1.62-16.02-2.6-24.13-2.92c2.94-4.94,7.41-9.45,11.74-13.82
		l0.45-0.45c7.08-7.17,13.6-14.39,15.61-23.78c1.82-8.53-1.5-17.84-8.26-23.18c-3.54-2.79-6.7-3.93-10.91-3.93
		c-0.96,0-2,0.06-3.28,0.18c-4.94,0.48-10.2,0.79-15.62,0.93c-2.28,0.06-4.65,0.09-7.04,0.09c-16.41,0-33.16-1.39-49.37-2.74
		c-9.79-0.81-19.91-1.65-29.89-2.19c-8.36-0.45-16.73-0.68-24.87-0.68c-47.13,0-89.55,7.53-126.09,22.39
		c-7.31,2.97-14.54,6.32-21.5,9.96c-15.56-1.12-31.35-1.99-46.94-2.56c-0.07,0-0.14-0.01-0.21-0.01c-0.01,0-0.02,0-0.04,0
		c-1.76,0-2.72,0.65-6.37,4.24c-1.83,1.8-4.76,4.84-8.35,9.08c-8.27,9.77-19.88,25.76-28.19,46.43
		c-9.6,23.85-12.45,47.98-8.47,71.72c-0.41,3.32-0.71,6.67-0.89,9.97c-1.52,28.18,5.14,55.13,19.24,77.96
		c17.02,27.37,45.26,47.98,77.73,56.8c6.01,13.06,21.4,39.7,48.89,45.29c0.18,0.04,0.36,0.06,0.54,0.07l0.01,0
		c0.52,0.06,1.88,0.21,3.71,0.21c4.71,0,11.16-1.01,15.15-5.82c2.98-3.6,3.93-8.47,2.8-14.5c-2.11-11.12-1.74-21.25-1.24-26.89
		c5.6-1.45,10.8-2.58,16.05-2.75c0.37-0.01,0.73-0.02,1.09-0.02c9.46,0,17.39,3.78,21.2,10.11c2.83,4.69,3.57,10.59,4.36,16.83
		c0.25,1.97,0.5,4,0.83,6c2.83,17.31,11.49,33.87,23.76,45.43c2.27,2.13,5.07,4.31,8.71,4.31c0.26,0,0.53-0.01,0.79-0.04
		c3.25-0.3,5.68-2.36,7.63-4.33c11.9-12.06,19.24-29.65,19.65-47.07c0.07-2.86-0.04-5.74-0.15-8.53
		c-0.25-6.46-0.49-12.57,1.42-18.02c3.85-11.06,15.15-16.03,27.12-21.29c11.74-5.16,23.88-10.49,30.4-22.07
		c1.46-2.63,2.2-4.91,2.32-7.21c0.51-9.2-8.71-15.15-17.5-16.79c-3.95-0.73-8.07-1.1-12.25-1.1c-15.54,0-30.63,5.04-45.22,9.91
		c-13.91,4.65-27.05,9.03-40.52,9.42c-0.65,0.02-1.3,0.03-1.94,0.03c-0.01,0-0.02,0-0.04,0c4.59-3.91,8.74-9.7,11.21-18.27
		c2.23-7.66,1.71-14.08-1.54-19.08c-4.18-6.45-11.72-8.71-17.3-9.48c-1.37-0.19-2.79-0.29-4.2-0.29c-2.52,0-5.08,0.31-7.6,0.92
		c-5.68,1.36-20.9,4.58-39.61,5.05c-0.34,0.01-0.68,0.01-1.01,0.01c-8.88,0-16.27-3.04-21.97-9.02c-2.37-4.41-3.72-8.62-4.14-12.86
		c-0.94-9.5,3.08-19.87,11.03-28.47c8.11-8.79,19.31-14.9,28.16-19.24c21.18-10.4,43.8-17.89,67.31-22.29
		c0.29,3.7-0.29,7.99-0.78,11.62c-0.57,4.23-0.99,7.29-0.28,9.69c0.78,2.7,2.83,5,6.08,6.83c1.93,1.09,4.14,1.66,6.39,1.66
		c1.72,0,3.4-0.33,4.99-0.97c18.06-7.23,20.19-24.88,19.97-34.16c7.77-1.19,16.49-2.82,25.03-5.55c6.91-2.2,13.61-5.1,20.09-7.9
		c11.32-4.89,22.02-9.52,33.91-10.86c4.4-0.5,9.14-0.55,13.71-0.59c10.12-0.1,20.58-0.21,29.67-4.94c1.65-0.86,5.54-3.3,6.19-7.44
		C615.06,219.95,614.27,217.66,612.46,215.83z"/>
	<path class="st6" d="M609.53,218.73c-0.76-0.76-1.8-1.24-2.89-1.46c-8.07-1.66-16.28-2.61-24.47-2.87c-0.02,0-0.03-0.01-0.04-0.01
		c-4.44-1.09-3.53-3.9-3.38-4.29c3.26-6.34,8.65-11.71,13.84-16.96c6.3-6.38,12.69-13.25,14.51-21.74
		c1.39-6.49-0.78-14.34-6.78-19.08c-3.78-2.97-6.55-3.34-11.23-2.89c-5.28,0.51-10.59,0.81-15.91,0.95
		c-28.9,0.74-57.77-3.31-86.62-4.84c-50.98-2.77-103.07,2.66-149.19,21.41c-7.58,3.08-14.99,6.54-22.17,10.34
		c-15.97-1.17-32.01-2.05-48.09-2.65c-0.58-0.4-59.89,53.71-47.19,127.25c-0.44,3.42-0.75,6.85-0.94,10.28
		c-1.44,26.72,4.84,53.25,18.63,75.57c17.58,28.28,46.54,47.64,77.18,55.48c4.57,10.47,19.23,39.13,46.75,44.73
		c0.01-0.06,20.8,3.29,17.34-15.23c-2.51-13.22-1.7-25.14-0.99-30.91c6.5-1.74,13.03-3.4,19.72-3.61
		c9.9-0.32,20.63,3.26,25.95,12.09c4.27,7.08,4.37,16,5.73,24.29c2.73,16.71,10.99,32.23,22.52,43.09c1.81,1.71,3.95,3.39,6.3,3.17
		c1.95-0.18,3.62-1.64,5.08-3.12c11.04-11.18,18.07-27.55,18.46-44.27c0.22-9.35-1.57-19.07,1.5-27.82
		c8.42-24.19,45.47-22.07,57.81-44.02c0.93-1.67,1.7-3.48,1.8-5.41c0.38-6.91-7.41-11.26-14.14-12.52
		c-33.29-6.19-64.48,17.35-97.12,18.29c-5.45,0.16-10.82-0.32-16.11-1.33c7.38-2.02,17.01-7.4,21.27-22.17
		c5.06-17.39-7.09-22.19-15.44-23.34c-3.43-0.48-6.91-0.26-10.28,0.55c-6.49,1.56-21.72,4.7-40.47,5.17
		c-13.11,0.33-21.43-5.25-26.46-10.69c-2.55-4.63-4.35-9.59-4.87-14.89c-1.13-11.48,4.09-22.99,12.1-31.67
		c8-8.67,18.56-14.84,29.37-20.14c22.6-11.09,47.09-19.02,72.41-23.37c2.69,8.47-1.54,21.01-0.39,24.92c0.57,1.95,2.37,3.4,4.14,4.4
		c2.38,1.34,5.29,1.48,7.82,0.46c18.05-7.22,17.91-26.85,17.16-33.86c9.55-1.36,19.01-3.04,28.13-5.95
		c18.38-5.86,35.09-16.7,54.78-18.93c14.15-1.6,29.75,1.26,41.95-5.09C609.44,224.58,612.31,221.55,609.53,218.73z"/>
	<rect x="250.29" y="613" class="st7" width="297.3" height="58.26"/>
	<g>
		<g>
			<path class="st5" d="M285.31,626.72h16.58v4.52h-5.61v27.13h-5.36v-27.13h-5.61V626.72z"/>
			<path class="st5" d="M307.45,634.32c0-5.07,2.88-7.96,8.14-7.96c5.27,0,8.14,2.89,8.14,7.96v16.46c0,5.06-2.88,7.96-8.14,7.96
				c-5.27,0-8.14-2.89-8.14-7.96V634.32z M312.82,651.1c0,2.26,1.07,3.12,2.78,3.12c1.71,0,2.78-0.86,2.78-3.12V634
				c0-2.26-1.07-3.12-2.78-3.12c-1.71,0-2.78,0.86-2.78,3.12V651.1z"/>
			<path class="st5" d="M335.98,626.72v24.42c0,2.26,1.08,3.08,2.78,3.08c1.71,0,2.78-0.81,2.78-3.08v-24.42h5.07v24.11
				c0,5.07-2.73,7.96-8,7.96c-5.27,0-8-2.89-8-7.96v-24.11H335.98z"/>
			<path class="st5" d="M365.14,658.38c-0.29-0.81-0.49-1.31-0.49-3.89v-4.97c0-2.94-1.07-4.03-3.51-4.03h-1.85v12.89h-5.36v-31.66
				h8.1c5.56,0,7.95,2.4,7.95,7.28v2.49c0,3.26-1.12,5.38-3.51,6.42c2.68,1.04,3.56,3.44,3.56,6.74v4.88c0,1.54,0.05,2.67,0.59,3.84
				H365.14z M359.29,631.24v9.72h2.1c2,0,3.22-0.81,3.22-3.35v-3.12c0-2.26-0.83-3.26-2.73-3.26H359.29z"/>
			<path class="st5" d="M381.97,635.45v22.93h-4.83v-31.66h6.73l5.51,18.95v-18.95h4.78v31.66h-5.51L381.97,635.45z"/>
			<path class="st5" d="M419.03,658.38h-5.41l-0.93-5.74h-6.58l-0.93,5.74h-4.92l5.46-31.66h7.85L419.03,658.38z M406.79,648.34
				h5.17l-2.58-16.01L406.79,648.34z"/>
			<path class="st5" d="M436.54,649.2l3.66-22.48h7.46v31.66h-5.07v-22.7l-3.71,22.7h-5.07l-4-22.39v22.39h-4.68v-31.66h7.46
				L436.54,649.2z"/>
			<path class="st5" d="M460.58,640.06h7.36v4.52h-7.36v9.27h9.26v4.52h-14.63v-31.66h14.63v4.52h-9.26V640.06z"/>
			<path class="st5" d="M481.59,635.45v22.93h-4.83v-31.66h6.73l5.51,18.95v-18.95h4.78v31.66h-5.51L481.59,635.45z"/>
			<path class="st5" d="M499.74,626.72h16.58v4.52h-5.61v27.13h-5.36v-27.13h-5.61V626.72z"/>
		</g>
	</g>
	<g>
		<g>
			<path class="st8" d="M630.76,551.35c-62.63-33.91-142.82-58.66-230.9-58.62c-88.08-0.05-168.66,24.75-230.91,58.63
				c-3.75,2.04-5.27,6.38-3.26,9.94c11.08,19.64,21.94,39.35,32.58,59.13c1.88,3.5,6.29,4.9,9.97,3.18
				c49.67-23.27,117.08-45.83,191.62-45.79c74.53-0.04,141.95,22.51,191.62,45.78c3.68,1.72,8.09,0.32,9.97-3.18
				c10.64-19.78,21.5-39.49,32.58-59.13C636.04,557.72,634.52,553.38,630.76,551.35z"/>
			<g>
				<path class="st9" d="M219.41,640.04c-5.14-0.52-10.28-1.03-15.42-1.51c-3.88-0.37-7.3-2.61-9.11-5.96
					c-9.15-16.94-18.46-33.82-27.93-50.65c-34.88,14.25-60.99,38.82-81.39,59.86c-0.91,0.94-0.3,2.48,1.01,2.6
					c18.5-0.75,36.98-1.3,55.44-1.64c-1.44,19.85-2.81,39.7-4.09,59.55c-0.1,1.51,1.83,2.28,2.75,1.08
					c18.45-24.11,41.28-44.85,79.56-57.99C223.02,644.43,222.34,640.33,219.41,640.04z"/>
			</g>
			<g>
				<path class="st9" d="M580.44,640.04c5.14-0.52,10.28-1.03,15.42-1.51c3.88-0.37,7.3-2.61,9.11-5.96
					c9.15-16.94,18.46-33.82,27.93-50.65c34.88,14.25,60.99,38.82,81.39,59.86c0.91,0.94,0.3,2.48-1.01,2.6
					c-18.5-0.75-36.98-1.3-55.44-1.64c1.45,19.85,2.81,39.7,4.09,59.55c0.1,1.51-1.83,2.28-2.75,1.08
					c-18.45-24.11-41.28-44.85-79.56-57.99C576.84,644.43,577.52,640.33,580.44,640.04z"/>
			</g>
		</g>
		<g>
			<path class="st1" d="M257.25,544.71l-4.75,1.53l2.78,8.66l7.88-2.53l1.91,5.95l-7.88,2.53l2.85,8.87l6.83-2.2l2.75,8.55
				l-24.57,7.9l-2.75-8.55l3.13-1.01l-7.55-23.48l-3.13,1.01l-2.75-8.56l31.72-10.2l4.34,13.51l-9.23,2.97L257.25,544.71z"/>
			<path class="st1" d="M278.78,529.34l21.37-4.91l2.01,8.76l-3.21,0.74l5.52,24.04l3.2-0.74l2.01,8.76l-21.37,4.91l-2.01-8.76
				l3.21-0.74l-5.52-24.04l-3.21,0.74L278.78,529.34z"/>
			<path class="st1" d="M335.98,551.62c1.19-0.16,2.02-0.46,2.48-0.89c0.46-0.43,0.63-1.01,0.54-1.73
				c-0.07-0.51-0.34-0.92-0.81-1.24c-0.47-0.32-1.37-0.65-2.71-0.98c-2.82-0.64-5.3-1.29-7.43-1.94c-2.14-0.64-3.94-1.44-5.42-2.38
				c-1.48-0.94-2.64-2.12-3.5-3.53c-0.86-1.41-1.44-3.19-1.73-5.32c-0.28-2.03-0.21-3.89,0.2-5.59c0.41-1.7,1.25-3.22,2.53-4.55
				c1.27-1.34,3.05-2.47,5.34-3.39c2.29-0.92,5.17-1.63,8.64-2.1c3.15-0.44,6.16-0.53,9.03-0.28c2.87,0.25,5.31,0.77,7.3,1.57
				l1.34,9.72l-11.4,1.57c-0.14-1.05-0.53-1.72-1.16-2.02c-0.63-0.3-1.37-0.39-2.2-0.28c-1.19,0.16-2.03,0.44-2.51,0.82
				c-0.48,0.38-0.67,0.95-0.57,1.71c0.08,0.62,0.43,1.03,1.03,1.24c0.6,0.21,1.49,0.42,2.66,0.63c2.19,0.4,4.27,0.85,6.24,1.35
				c1.97,0.5,3.74,1.22,5.3,2.14c1.57,0.93,2.87,2.13,3.9,3.61c1.03,1.48,1.71,3.38,2.03,5.69c0.65,4.71-0.39,8.42-3.11,11.13
				s-7.02,4.48-12.88,5.29c-3.33,0.46-6.57,0.61-9.73,0.46c-3.16-0.16-5.71-0.51-7.67-1.05l-1.48-10.75l11.94-1.64
				c0.15,1.09,0.48,1.86,0.98,2.32C333.67,551.67,334.61,551.81,335.98,551.62z"/>
			<path class="st1" d="M392,514.4l21.43-0.36l0.15,8.98l-3.29,0.06l0.41,24.66l3.29-0.05l0.15,8.99l-21.42,0.36l-0.15-8.99
				l2.79-0.05l-0.15-9.04l-8.22,0.14l0.15,9.04l2.79-0.05l0.15,8.99l-21.42,0.36l-0.15-8.99l3.29-0.05l-0.41-24.66l-3.29,0.06
				l-0.15-8.99l21.42-0.36l0.15,8.99l-2.79,0.05l0.14,8.33l8.22-0.14l-0.14-8.33l-2.79,0.05L392,514.4z"/>
			<path class="st1" d="M429.88,515.29l21.84,1.92l-0.79,8.96l-3.28-0.29l-2.16,24.56l3.28,0.29l-0.79,8.95l-21.84-1.92l0.79-8.95
				l3.28,0.29l2.16-24.57l-3.27-0.29L429.88,515.29z"/>
			<path class="st1" d="M499.02,524.91l18.82,3.72l-1.74,8.82l-3.23-0.64l-6.52,33.01l-15.11-2.98l-10.96-27.36l-3.05,15.43
				l3.23,0.63l-1.74,8.82l-18.82-3.72l1.74-8.82l3.23,0.64l4.78-24.19l-3.23-0.64l1.74-8.82l19.95,3.94l9.87,24.41l2.53-12.8
				l-3.23-0.64L499.02,524.91z"/>
			<path class="st1" d="M547.28,559.55l18.43,6.07l-2.56,7.76l-2.6-0.86l-3.43,10.41c-0.92,0.12-1.98,0.21-3.17,0.25
				c-1.19,0.05-2.52,0.01-4-0.13c-1.47-0.14-3.1-0.38-4.86-0.74c-1.77-0.35-3.69-0.87-5.78-1.56c-3.12-1.03-5.81-2.34-8.05-3.93
				c-2.25-1.58-3.97-3.5-5.17-5.74c-1.21-2.24-1.84-4.85-1.9-7.81c-0.06-2.96,0.54-6.35,1.79-10.17c1.25-3.78,2.78-6.85,4.6-9.22
				c1.82-2.36,3.87-4.09,6.15-5.19c2.29-1.09,4.8-1.61,7.55-1.55c2.75,0.06,5.67,0.6,8.76,1.62c2.12,0.7,4,1.43,5.65,2.21
				c1.65,0.77,3.11,1.55,4.37,2.33c1.26,0.78,2.36,1.54,3.28,2.29c0.93,0.75,1.73,1.45,2.4,2.09l-4.1,12.44l-13.01-4.29l0.81-2.45
				c0.49-1.49,0.54-2.65,0.14-3.48c-0.4-0.82-1.26-1.45-2.58-1.89c-1.32-0.44-2.38-0.44-3.2-0.02c-0.81,0.43-1.47,1.38-1.96,2.88
				l-5.01,15.2c-0.49,1.49-0.54,2.65-0.14,3.48c0.4,0.82,1.26,1.45,2.58,1.89c1.32,0.43,2.38,0.44,3.2,0.02
				c0.81-0.42,1.46-1.38,1.96-2.88l0.12-0.36l-2.81-0.93L547.28,559.55z"/>
		</g>
		<path class="st1" d="M718.68,637.51c-21.56-22.24-48.35-46.92-83.46-61.26l-2.09-0.85c2.07-3.71,4.15-7.42,6.22-11.1
			c1.72-3.06,2.14-6.6,1.17-9.96c-1.03-3.56-3.46-6.53-6.85-8.36c-33.53-18.15-69.58-32.47-107.13-42.54
			c-41.6-11.16-84.14-16.82-126.45-16.82h-0.12h-0.11h-0.12h-0.13c-42.34,0-84.93,5.66-126.59,16.83
			c-37.7,10.11-73.7,24.42-107,42.55c-3.38,1.83-5.81,4.81-6.84,8.37c-0.97,3.36-0.55,6.9,1.17,9.95c2.08,3.7,4.16,7.42,6.24,11.13
			l-1.97,0.8c-35.11,14.35-61.9,39.02-83.47,61.27c-2.07,2.13-2.72,5.19-1.68,7.97c1.04,2.81,3.55,4.71,6.55,4.98l0.39,0.03
			l0.4-0.02c16.12-0.66,32.44-1.16,48.61-1.5c-1.26,17.59-2.47,35.36-3.61,52.91c-0.14,2.1,0.6,4.19,2.05,5.73
			c1.46,1.56,3.51,2.45,5.64,2.45c2.38,0,4.58-1.09,6.03-2.99c21.53-28.13,44.46-44.86,76.69-55.92c3.9-1.33,6.3-5.14,5.83-9.26
			c-0.49-4.25-3.79-7.52-8.03-7.95c-5.1-0.52-10.31-1.03-15.46-1.51c-1.85-0.18-3.46-1.21-4.3-2.78c-0.01-0.02-0.02-0.03-0.03-0.05
			c1.49,0.54,3.07,0.85,4.71,0.85c2.04,0,4.02-0.44,5.88-1.3c64.04-30.01,127.57-45.22,188.83-45.22h0.1l0.11,0l0.12,0h0.11
			c61.26,0,124.78,15.21,188.8,45.2c1.87,0.87,3.85,1.31,5.89,1.31c1.7,0,3.35-0.33,4.88-0.91c-0.02,0.04-0.04,0.08-0.06,0.12
			c-0.85,1.57-2.45,2.61-4.3,2.79c-5.14,0.49-10.35,1-15.46,1.51c-4.25,0.43-7.55,3.7-8.04,7.95c-0.47,4.12,1.93,7.93,5.84,9.26
			c32.22,11.06,55.15,27.78,76.68,55.92c1.45,1.9,3.65,2.99,6.03,2.99c2.13,0,4.18-0.89,5.64-2.45c1.44-1.54,2.18-3.63,2.04-5.74
			c-1.13-17.53-2.34-35.3-3.61-52.9c16.18,0.34,32.5,0.85,48.61,1.5l0.39,0.02l0.39-0.03c3-0.27,5.51-2.18,6.55-4.98
			C721.4,642.7,720.76,639.64,718.68,637.51z M203.99,638.53c5.15,0.49,10.29,0.99,15.42,1.51c2.92,0.29,3.61,4.39,0.84,5.33
			c-38.28,13.14-61.11,33.88-79.56,57.99c-0.31,0.41-0.74,0.59-1.17,0.59c-0.83,0-1.65-0.68-1.58-1.67
			c1.28-19.85,2.64-39.7,4.09-59.55c-18.46,0.34-36.95,0.88-55.44,1.64c-1.32-0.12-1.93-1.66-1.01-2.6
			c20.4-21.04,46.51-45.61,81.39-59.86c9.47,16.83,18.78,33.72,27.93,50.65C196.69,635.92,200.11,638.16,203.99,638.53z
			 M591.48,623.59c-49.62-23.25-116.95-45.78-191.39-45.78c-0.07,0-0.15,0-0.22,0c-0.07,0-0.14,0-0.2,0
			c-74.45,0-141.79,22.54-191.41,45.79c-1.07,0.5-2.19,0.73-3.3,0.73c-2.72,0-5.33-1.43-6.67-3.91
			c-10.64-19.78-21.5-39.49-32.58-59.13c-2.01-3.56-0.49-7.9,3.26-9.94c62.19-33.85,142.67-58.63,230.66-58.63c0.08,0,0.16,0,0.24,0
			c0.08,0,0.15,0,0.23,0c87.99,0,168.1,24.74,230.68,58.62c3.76,2.03,5.27,6.38,3.26,9.94c-11.08,19.64-21.94,39.35-32.58,59.13
			c-1.34,2.49-3.95,3.92-6.67,3.92C593.67,624.33,592.54,624.09,591.48,623.59z M713.28,644.37c-18.5-0.75-36.98-1.3-55.44-1.64
			c1.45,19.85,2.81,39.7,4.09,59.55c0.06,0.99-0.75,1.67-1.58,1.67c-0.43,0-0.86-0.18-1.17-0.59
			c-18.45-24.11-41.28-44.85-79.56-57.99c-2.77-0.95-2.09-5.04,0.84-5.33c5.14-0.52,10.28-1.03,15.42-1.51
			c3.88-0.37,7.3-2.61,9.11-5.96c9.15-16.94,18.46-33.82,27.93-50.65c34.88,14.25,60.99,38.82,81.39,59.86
			C715.21,642.71,714.6,644.25,713.28,644.37z"/>
		<g class="st10">
			<path class="st11" d="M594.77,624.33c2.72,0,5.33-1.43,6.67-3.92c10.64-19.78,21.5-39.49,32.58-59.13
				c2.01-3.56,0.5-7.91-3.26-9.94c-62.57-33.88-142.69-58.62-230.68-58.62c-0.08,0-0.15,0-0.23,0c-0.08,0-0.16,0-0.24,0
				c-87.99,0-168.47,24.78-230.66,58.63c-3.75,2.04-5.27,6.38-3.26,9.94c11.08,19.64,21.94,39.35,32.58,59.13
				c1.34,2.49,3.95,3.91,6.67,3.91c1.11,0,2.23-0.24,3.3-0.73c49.62-23.25,116.96-45.79,191.41-45.79c0.07,0,0.14,0,0.2,0
				c0.07,0,0.15,0,0.22,0c74.45,0,141.78,22.53,191.39,45.78C592.54,624.09,593.67,624.33,594.77,624.33z M399.86,571.84h-0.1h-0.1
				c-63.05,0-128.3,15.6-193.94,46.35c-0.25,0.11-0.51,0.17-0.77,0.17c-0.48,0-1.11-0.2-1.42-0.78
				c-10.62-19.73-21.6-39.66-32.64-59.23c-0.13-0.22-0.15-0.42-0.08-0.66c0.06-0.2,0.27-0.7,1-1.1
				c32.46-17.67,67.57-31.63,104.35-41.49c40.64-10.9,82.17-16.42,123.46-16.42h0.25h0.22c41.25,0,82.75,5.52,123.32,16.4
				c36.64,9.83,71.81,23.79,104.52,41.5c0.5,0.27,0.86,0.67,0.98,1.08c0.07,0.24,0.04,0.44-0.09,0.67
				c-11.03,19.57-22.01,39.5-32.63,59.23c-0.31,0.57-0.94,0.78-1.42,0.78c-0.27,0-0.53-0.06-0.76-0.17
				c-65.64-30.75-130.88-46.35-193.93-46.35H399.86z"/>
			<path class="st11" d="M219.41,640.04c-5.14-0.52-10.28-1.03-15.42-1.51c-3.88-0.37-7.3-2.61-9.11-5.96
				c-9.15-16.94-18.46-33.82-27.93-50.65c-34.88,14.25-60.99,38.82-81.39,59.86c-0.91,0.94-0.3,2.48,1.01,2.6
				c18.5-0.75,36.98-1.3,55.44-1.64c-1.44,19.85-2.81,39.7-4.09,59.55c-0.07,0.99,0.75,1.67,1.58,1.67c0.43,0,0.86-0.18,1.17-0.59
				c18.45-24.11,41.28-44.85,79.56-57.99C223.02,644.43,222.34,640.33,219.41,640.04z M144.79,688.84
				c1.01-15.22,2.08-30.53,3.18-45.68l0.48-6.52l-6.54,0.12c-14.66,0.27-29.48,0.68-44.21,1.21c18.73-18.58,39.92-36.53,66.67-48.47
				c8.52,15.21,17.01,30.62,25.26,45.89c2.76,5.13,7.92,8.52,13.8,9.08c0.67,0.06,1.35,0.13,2.03,0.19
				C176.77,656.87,158.15,673.46,144.79,688.84z"/>
			<path class="st11" d="M714.29,641.77c-20.4-21.04-46.51-45.61-81.39-59.86c-9.47,16.83-18.78,33.72-27.93,50.65
				c-1.81,3.36-5.23,5.6-9.11,5.96c-5.15,0.49-10.29,0.99-15.42,1.51c-2.92,0.29-3.61,4.39-0.84,5.33
				c38.28,13.14,61.11,33.88,79.56,57.99c0.31,0.41,0.74,0.59,1.17,0.59c0.83,0,1.65-0.68,1.58-1.67
				c-1.28-19.85-2.64-39.7-4.09-59.55c18.46,0.34,36.95,0.88,55.44,1.64C714.6,644.25,715.21,642.71,714.29,641.77z M657.94,636.76
				l-6.54-0.12l0.47,6.52c1.1,15.15,2.17,30.45,3.18,45.68c-13.35-15.38-31.97-31.96-60.66-44.18c0.68-0.07,1.35-0.13,2.03-0.2
				c5.88-0.56,11.04-3.95,13.8-9.07c8.25-15.27,16.73-30.68,25.26-45.9c26.75,11.94,47.94,29.89,66.67,48.47
				C687.43,637.44,672.61,637.04,657.94,636.76z"/>
		</g>
	</g>
	<g>
		<path class="st6" d="M609.53,218.73c-0.76-0.76-1.8-1.24-2.89-1.46c-8.07-1.66-16.28-2.61-24.47-2.87c-0.02,0-0.03-0.01-0.04-0.01
			c-4.44-1.09-3.53-3.9-3.38-4.29c3.26-6.34,8.65-11.71,13.84-16.96c6.3-6.38,12.69-13.25,14.51-21.74
			c1.39-6.49-0.78-14.34-6.78-19.08c-3.78-2.97-6.55-3.34-11.23-2.89c-5.28,0.51-10.59,0.81-15.91,0.95
			c-28.9,0.74-57.77-3.31-86.62-4.84c-50.98-2.77-103.07,2.66-149.19,21.41c-7.58,3.08-14.99,6.54-22.17,10.34
			c-15.97-1.17-32.01-2.05-48.09-2.65c-0.58-0.4-59.89,53.71-47.19,127.25c-0.44,3.42-0.75,6.85-0.94,10.28
			c-1.44,26.72,4.84,53.25,18.63,75.57c17.58,28.28,46.54,47.64,77.18,55.48c4.57,10.47,19.23,39.13,46.75,44.73
			c0.01-0.06,20.8,3.29,17.34-15.23c-2.51-13.22-1.7-25.14-0.99-30.91c6.5-1.74,13.03-3.4,19.72-3.61
			c9.9-0.32,20.63,3.26,25.95,12.09c4.27,7.08,4.37,16,5.73,24.29c2.73,16.71,10.99,32.23,22.52,43.09c1.81,1.71,3.95,3.39,6.3,3.17
			c1.95-0.18,3.62-1.64,5.08-3.12c11.04-11.18,18.07-27.55,18.46-44.27c0.22-9.35-1.57-19.07,1.5-27.82
			c8.42-24.19,45.47-22.07,57.81-44.02c0.93-1.67,1.7-3.48,1.8-5.41c0.38-6.91-7.41-11.26-14.14-12.52
			c-33.29-6.19-64.48,17.35-97.12,18.29c-5.45,0.16-10.82-0.32-16.11-1.33c7.38-2.02,17.01-7.4,21.27-22.17
			c5.06-17.39-7.09-22.19-15.44-23.34c-3.43-0.48-6.91-0.26-10.28,0.55c-6.49,1.56-21.72,4.7-40.47,5.17
			c-13.11,0.33-21.43-5.25-26.46-10.69c-2.55-4.63-4.35-9.59-4.87-14.89c-1.13-11.48,4.09-22.99,12.1-31.67
			c8-8.67,18.56-14.84,29.37-20.14c22.6-11.09,47.09-19.02,72.41-23.37c2.69,8.47-1.54,21.01-0.39,24.92
			c0.57,1.95,2.37,3.4,4.14,4.4c2.38,1.34,5.29,1.48,7.82,0.46c18.05-7.22,17.91-26.85,17.16-33.86c9.55-1.36,19.01-3.04,28.13-5.95
			c18.38-5.86,35.09-16.7,54.78-18.93c14.15-1.6,29.75,1.26,41.95-5.09C609.44,224.58,612.31,221.55,609.53,218.73z"/>
		<path class="st12" d="M610.17,219.55c-6.88,1.8-21.77,3.14-35.02,2.55c-18.14-0.81-53.18,6.24-77.5,16.86
			c-14.2,6.2-30.81,7.6-46.08,8.92c-17.18,1.48-35.62-12.59-52-6.25c-10.13,3.92-20.45,19.39-30.37,23.97
			c-8.47,3.91-17.37,8.03-24.97,13.51c-10.35,7.47-22.76,15.04-26.36,28.19c-3.37,12.33,2.54,25.1,10.46,34.34
			c3.77,4.4,8.23,8.18,13.14,11.25c2.51,1.57,5.14,2.96,7.86,4.15c1.63,0.72,6.4,3.45,8.13,2.95l1.66-0.48
			c-6.83-1.94-11.71-5.66-15.1-9.33c-2.55-4.63-4.35-9.59-4.87-14.89c-1.13-11.48,4.09-22.99,12.1-31.67
			c8-8.67,18.56-14.84,29.37-20.14c22.6-11.09,47.09-19.02,72.41-23.37c2.69,8.47-1.54,21.01-0.39,24.92
			c0.57,1.95,2.37,3.4,4.14,4.4c2.38,1.34,5.29,1.48,7.82,0.46c18.05-7.22,17.91-26.85,17.16-33.86c9.55-1.36,19.01-3.04,28.13-5.95
			c18.38-5.86,35.09-16.7,54.78-18.93c14.15-1.6,29.75,1.26,41.95-5.09C609.17,224.73,611.74,222.12,610.17,219.55z"/>
		<path class="st12" d="M378.65,182.26l-2.55,16.09c0,0-70.19,17.41-98.63,68.13c0,0-71.55,79.38,25.27,157.47l45.62,13.3
			l22.86,5.82l5.15,32.55l-3.97,7.09l-10.86,5.25l-11.87-5l-24.4-24.12l-6.61-16.31l-58.19-32.3l-29.85-54.7l11.55-87.06
			l59.58-63.21l75.32-29.98L378.65,182.26z"/>
		<path class="st12" d="M393.22,196.83c0,0,27.9,13.77,80.65,1.52C473.87,198.35,396.43,231.36,393.22,196.83z"/>
		<path class="st12" d="M422.35,403.99c0,0,13.92,14.42,0,14.42s-107.99,3.23-134.93-77.33c0,0-6.63,76.51,122.75,87.03
			c0,0,18.72,5.75,10.69,11.65l7.68,6.46l15.35-8.96l4.04-19.59l-5.44-11.93L422.35,403.99z"/>
		<path class="st13" d="M511.52,205.74v-13.52c0,0,46.34-45.56,79.16-40.35c0,0,13.1,5.87,11.77,12.34c-1.33,6.46-5.3,18.9-5.3,18.9
			l-8.29,10.11L572.61,214l-7.78,2.92L538.47,214L511.52,205.74z"/>
		<path class="st12" d="M446.71,412.2l12.43-11.59l65.96-14.39l7.14,7.83l-26.36,25.86l-25.86,13.94l-2.08,17.86l-0.65,22.04
			l-17.16,40.15h-8.31l-13.32-16.16l-7.37-44.76l10.6-15.72C441.74,437.26,459.86,422.5,446.71,412.2z"/>
		<g>
			<path class="st1" d="M477.62,223.41c2.91,1.81,6.32,2.85,9.78,3.12c1.87,0.15,3.76,0.1,5.62-0.11c0.56-0.07,1.68-0.48,2.22-0.36
				c0.24,0.03-30.82-6.5,9.99-42.16c-2.2,1.28-4.34,2.64-6.46,4.02c-4.64,3.04-9.14,6.26-13.35,9.75c-3.06,2.53-6.05,5.16-8.58,8.12
				c-2.23,2.61-4.72,5.73-4.9,9.16C471.75,218.68,474.43,221.43,477.62,223.41z"/>
			<path class="st1" d="M516.28,230.7c-14.96,7.03-30.97,15.48-63.75,16.82c0.04-0.04,27.26,3.13,48.68-5.14
				c21.52-8.24,25.24-13.6,51.38-18.34C552.6,224.01,531.23,223.68,516.28,230.7z"/>
			<path class="st1" d="M490.89,166.87c2.98,0.18,5.52-1.79,5.66-4.41c0.15-2.63-2.17-4.92-5.17-5.1c-3-0.18-5.54,1.81-5.67,4.43
				C485.59,164.42,487.91,166.69,490.89,166.87z"/>
			<path class="st1" d="M609.53,218.73c-0.76-0.76-1.8-1.24-2.89-1.46c-8.07-1.66-16.28-2.61-24.47-2.87
				c-0.02,0-0.03-0.01-0.04-0.01c-4.44-1.09-3.53-3.9-3.38-4.29c3.26-6.34,8.65-11.71,13.84-16.96c6.3-6.38,12.69-13.25,14.51-21.74
				c1.39-6.49-0.78-14.34-6.78-19.08c-3.78-2.97-6.55-3.34-11.23-2.89c-5.28,0.51-10.59,0.81-15.91,0.95
				c-28.9,0.74-57.77-3.31-86.62-4.84c-50.98-2.77-103.07,2.66-149.19,21.41c-7.58,3.08-14.99,6.54-22.17,10.34
				c-15.97-1.17-32.01-2.05-48.09-2.65c-0.58-0.4-59.89,53.71-47.19,127.25c-0.44,3.42-0.75,6.85-0.94,10.28
				c-1.44,26.72,4.84,53.25,18.63,75.57c17.58,28.28,46.54,47.64,77.18,55.48c4.57,10.47,19.23,39.13,46.75,44.73
				c0.01-0.06,20.8,3.29,17.34-15.23c-2.51-13.22-1.7-25.14-0.99-30.91c6.5-1.74,13.03-3.4,19.72-3.61
				c9.9-0.32,20.63,3.26,25.95,12.09c4.27,7.08,4.37,16,5.73,24.29c2.73,16.71,10.99,32.23,22.52,43.09
				c1.81,1.71,3.95,3.39,6.3,3.17c1.95-0.18,3.62-1.64,5.08-3.12c11.04-11.18,18.07-27.55,18.46-44.27
				c0.22-9.35-1.57-19.07,1.5-27.82c8.42-24.19,45.47-22.07,57.81-44.02c0.93-1.67,1.7-3.48,1.8-5.41
				c0.38-6.91-7.41-11.26-14.14-12.52c-33.29-6.19-64.48,17.35-97.12,18.29c-5.45,0.16-10.82-0.32-16.11-1.33
				c7.38-2.02,17.01-7.4,21.27-22.17c5.06-17.39-7.09-22.19-15.44-23.34c-3.43-0.48-6.91-0.26-10.28,0.55
				c-6.49,1.56-21.72,4.7-40.47,5.17c-13.11,0.33-21.43-5.25-26.46-10.69c-2.55-4.63-4.35-9.59-4.87-14.89
				c-1.13-11.47,4.09-22.99,12.1-31.67c8-8.67,18.56-14.84,29.37-20.14c22.6-11.09,47.09-19.02,72.41-23.37
				c2.69,8.47-1.54,21.01-0.39,24.92c0.57,1.95,2.37,3.4,4.14,4.4c2.38,1.34,5.29,1.48,7.82,0.46
				c18.05-7.22,17.91-26.85,17.16-33.86c9.55-1.36,19.01-3.04,28.13-5.95c18.38-5.86,35.09-16.7,54.78-18.93
				c14.15-1.6,29.75,1.26,41.95-5.1C609.44,224.58,612.31,221.55,609.53,218.73z M585.64,155.7c5.79,0.38,11.64,2.73,13.39,8.11
				c3.54,10.97-5.88,21.47-12.46,29.36c-4.78,5.7-10.07,11.43-13.93,17.74c-1.55,2.52-3.36,3.23-6.59,3.08
				c-2.73-0.13-5.51-0.2-8.32-0.26c0.34-0.84,0.72-1.84,0.77-1.96c2.3-5.14,4.94-10.15,7.8-15.05c1.41-2.42,3.1-4.69,4.56-7.08
				c1.22-2,3.3-4.89,2.46-7.32c-1.04-2.98-5.48-3.58-8.41-3.56c-4.27,0.03-8.62,1.04-12.17,3.02c-6.79,3.78-13.24,7.98-20.09,11.63
				c-6.06,3.23-12.3,6.19-18.67,8.91c-0.45-2.38,0.46-4.77,1.75-6.88c4.1-6.69,9.83-11.96,16.06-17.06
				c5.98-4.89,12.45-9.37,19.42-13.17C561.22,159.73,573.23,154.89,585.64,155.7z M557.21,153.15c-10.98,9.86-43.29-1.31-45.69-2.03
				C529.36,155.95,557.18,153.1,557.21,153.15z M488.21,148.56c2.11-0.83,4.81-0.49,7.04-0.11c1.78,0.3,3.52,0.79,5.17,1.45
				c1.43,0.57,3.23,1.24,4,2.53c0.56,0.93-0.06,1.79-0.91,2.34c-0.61,0.39-1.33,0.76-2.09,0.89c-1.06,0.18-1.45-0.28-1.88-1.06
				c-2.27-4.04-7.42-5.55-12.2-5.62C487.72,148.68,488.18,148.57,488.21,148.56z M489.68,153.23c4.62,0.28,8.18,3.79,7.95,7.82
				c-0.23,4.03-4.12,7.05-8.69,6.77c-4.57-0.27-8.13-3.74-7.96-7.77C481.16,156.02,485.06,152.95,489.68,153.23z M474.99,165.45
				c0.5-0.78,1.75-0.81,2.35-0.06c3.13,3.95,7.18,6.11,14.57,5.06c8.27-1.17,10.69-9.31,10.69-9.32c0.06-0.21,0.76,0.33,0.8,0.39
				c0.26,0.32,0.26,0.81,0.25,1.17c-0.03,1.35-0.69,2.7-1.4,3.86c-3.6,5.89-11.28,8.99-18.77,8.7c-2.73-0.11-6.41-0.89-8.29-2.87
				C473.29,170.37,473.63,167.56,474.99,165.45z M229.17,290.81c8.35-78.15,96.39-112.65,96.61-111.82
				C241.28,231.12,229.6,291.4,229.17,290.81z M323.1,445.31c2.36,0.17,4.72,0.35,7.08,0.54c6.49,21.24,26.49,36.82,26.44,36.87
				C336.29,474.68,323.13,445.34,323.1,445.31z M335.49,446.22c2.44,0.13,4.88,0.26,7.32,0.4c6.28,21.32,25.51,36.89,25.46,36.94
				C348.04,475.3,335.52,446.25,335.49,446.22z M348.36,446.53c2.31-0.07,4.62-0.13,6.93-0.19c5.39,22.53,18.81,32.84,18.8,32.86
				C355.98,470.63,348.36,446.56,348.36,446.53z M360.48,445.95c1.88-0.19,3.76-0.38,5.64-0.56c0.65,7.72,6.29,22.62,6.27,22.63
				C365.03,458.76,360.48,445.95,360.48,445.95z M434.37,451.7c12.71,18.55,19.97,58.39,19.97,58.39
				C437.23,497.38,434.37,451.7,434.37,451.7z M462.53,502.11c-10.82-44.41-21.64-56.72-21.64-56.72
				C466.65,451.52,462.53,502.11,462.53,502.11z M486.82,398.92c17.86-6.43,30.66-9.62,40.26-7.06c0,0-54.81,26.33-72.74,15.96
				C454.34,407.82,468.96,405.35,486.82,398.92z M516.37,408.56c0,0-45.5,27.23-62.03,9.27
				C454.34,417.83,486.61,418.65,516.37,408.56z M475.56,437.26c0,0-18.65-0.7-23.41-12.46C452.15,424.8,471.27,430.9,475.56,437.26
				z M475.24,464.89c0,0-19.41-15.59-27.31-31.04C447.93,433.84,471.01,441.08,475.24,464.89z M397.75,385.81
				c23.93,0.03,30.44-3.11,30.45-3.16C425.02,396.64,397.82,385.72,397.75,385.81z M430.93,369.99c3.79,15.04-43.67,7.42-48.97,6.84
				C426.75,379.2,430.9,370.2,430.93,369.99z M427.86,362.96c1.83,13.96-50.76,8.2-56.64,7.9
				C425.83,370.35,427.86,363.26,427.86,362.96z M418.49,358.37c-0.06,0.31,2.61,12.44-53.77,6.01
				C364.76,364.29,398.49,365.85,418.49,358.37z M586.3,224.77c-4.38,0.41-8.79,0.6-13.16,1.05c-9.3,0.97-18.49,2.46-27.49,4.55
				c-11.54,2.69-21.64,7.72-32.47,11.88c-11.06,4.23-23.59,7.8-35.47,9.13c-14.11,1.57-28.12,3.66-41.98,6.26
				c-13.47,2.53-26.44,5.48-38.82,9.82c-0.05-0.03-33.13,6.67-64.01,6.64c0.01,0.04,14.18,4.89,39.15,4.7
				c-10.93,2.01-34.71,6.1-57.44,6.37c0.02,0.04,15.13,5,41.56,4.05c0.02,0.1,0.01,0.06,0.04,0.15
				c-10.91,2.16-34.35,6.49-56.81,7.04c0.02,0.05,16.44,5.25,44.88,3.35c-0.29,0.33-0.57,0.66-0.85,1
				c-9.35,1.97-29.46,5.89-48.75,6.43c0.03,0.04,15.77,5.01,42.81,2.28c-0.21,0.39-0.42,0.78-0.62,1.17
				c-8.94,2.28-25.4,6.11-41.37,7.25c0.02,0.03,14.28,3.9,38.31,0.34c-0.13,0.44-0.24,0.88-0.36,1.32
				c-7.89,2.14-22.36,5.71-36.42,6.86c0.02,0.03,13.1,3.48,34.99-0.27c0.03-0.03,0.06-0.07,0.09-0.1c-0.08,0.57-0.16,1.14-0.21,1.71
				c-7.51,2.02-20.37,5.13-32.89,6.13c0.02,0.01,13.77,2.65,32.68-0.08c0.01,0.57,0.01,1.14,0.04,1.71
				c-6.62,1.78-17.84,4.49-28.78,5.33c0.01,0.01,12.43,2.46,29.4-0.12c0.11,0.63,0.2,1.26,0.33,1.89
				c-6.33,1.66-16.17,3.91-25.77,4.62c0.01,0.01,11.39,2.29,27.04,0.04c0.2,0.63,0.39,1.27,0.62,1.9
				c-6.31,1.63-15.88,3.78-25.22,4.46c0.01,0.01,11.43,2.33,27.11,0.06c0.26,0.58,0.54,1.15,0.82,1.71
				c-6.27,1.56-15.23,3.48-23.99,4.09c0.01,0.01,11.04,2.31,26.31,0.25c0.38,0.65,0.8,1.28,1.2,1.92
				c-6.14,1.46-14.41,3.12-22.5,3.65c0.01,0.01,10.56,2.26,25.3,0.47c0.3,0.41,0.62,0.82,0.93,1.22c-5.82,1.29-13.07,2.6-20.19,3.02
				c0.01,0.01,9.63,2.12,23.31,0.8c0.76,0.87,1.53,1.71,2.32,2.55c-5.72,1.22-12.76,2.45-19.67,2.83c0.01,0.01,9.66,2.19,23.4,0.9
				c0.98,0.92,1.98,1.82,3,2.69c-5.56,1.13-12.25,2.22-18.82,2.54c0.01,0.01,9.62,2.25,23.3,1.04c0.9,0.68,1.8,1.34,2.72,1.99
				c-5.7,1.17-12.74,2.32-19.63,2.62c0.01,0.01,10.47,2.53,25.13,0.99c2.12,1.29,4.27,2.49,6.45,3.61
				c31.79,16.31,57.75,16.36,57.85,16.34c4.34,0.02,7.7,1.89,7.7,1.89c7.84,6.41,1.64,35.3-20.24,27.72
				c-10.66-3.63-20.99-4.45-28.78-4.3c-1.5,0.03-2.91,0.09-4.21,0.17c-18.62-0.26-91.31,2.24-115.48-42.17
				c-0.08,0.31,10.75,37.05,66.03,46.98c-17.41-0.34-26.94-3.58-26.94-3.6c-9.19-3.07-18.02-7.44-25.97-13.29
				c-38.86-28.5-51.99-84.16-38.49-130.85c7.89-27.27,26.12-49.64,50.43-67.09c15.94-11.46,33.68-21.68,52.42-29.3
				c5.01,28.22,30.84,41.15,30.8,41.22c-17.73-12.39-23.34-35.05-24.8-43.55c2.86-1.07,9.07-3.35,14.5-5.29
				c1.13,21.95,14.87,41.21,31.14,51.15c-3.67,1.12-11.11,2.8-24.72,4.21c-13.69,1.44-21.31,2.21-25.42,4.04
				c-3.23,1.45-4.01,5.39-1.53,7.73c3.45,3.25,10.26,8.21,20.49,9.19c2.62,0.25,5.26-0.21,7.66-1.26
				c6.96-3.11,23.24-10.68,32.25-19.62c3.34,1.26,6.72,2.13,10.1,2.52c24.88,2.96,33.8-8.34,33.83-8.39
				c-8.93,5.68-22.95,3.7-22.96,3.72c-42.65-6.62-48.9-43.3-49.72-55.15c9.57,4.57,19.65,7.22,29.74,8.55
				c-0.45-18.45,40.6-28.17,40.68-27.99c-26.84,11.77-29.21,23.16-28.23,28.98c29.87,0.89,58.29-7.91,69-13.64
				c15.98-8.69,35.83-8.72,35.81-8.7c-6.6,4.38-21.47,17.77-23.63,29.59c-2.17,11.78,17.89,14.63,30.23,15.64
				c9.03,0.7,18.18,0.21,27.22,0.25c9.54,0.04,21.67-0.91,30.61,3.04c0.39,0.17,0.7,0.52,0.69,0.9
				C593.86,224.4,587.96,224.61,586.3,224.77z"/>
			<path class="st1" d="M542.32,179.24c-0.07-0.02,22.35-16.96,40.16-13.55c3.23,0.61,5.74,2.99,5.98,5.86
				c0.42,4.7-2.44,13.33-15.9,29.12c-0.05-0.04,17.89-16.19,21.08-28.74c0.76-3.09-0.15-6.5-2.93-8.7
				c-2.89-2.29-8.22-3.97-17.82-1.44C572.87,161.75,552.21,167.68,542.32,179.24z"/>
			<path class="st1" d="M275.33,294.81c-39.74,86.66,35.73,121.45,35.73,121.45C254.52,380.48,275.33,294.81,275.33,294.81z"/>
			<path class="st1" d="M252.17,332.86c0,0,13.61-73.33,83.31-118.86C335.49,214,247.83,249.12,252.17,332.86z"/>
		</g>
	</g>
</g>
</svg>
